<svg id="Layer_1" enable-background="new 0 0 105 105" viewBox="0 0 105 105" xmlns="http://www.w3.org/2000/svg"><g><g><g><g><circle cx="86.57" cy="18.629" fill="#ffd9b0" r="9.429"/></g><g><path d="m95.9985123 18.6265221c0 5.2115917-4.2171478 9.4287453-9.4287415 9.4287453-4.1315613 0-7.6457901-2.6572762-8.9143677-6.3600502 1.5684586 1.1656189 3.5142212 1.8599682 5.6313782 1.8599682 5.2030182 0 9.4287491-4.2171535 9.4287491-9.4287453 0-1.0714483-.1799698-2.1002064-.5055923-3.0603247 2.3057098 1.7231064 3.7885742 4.4745521 3.7885742 7.5604067z" fill="#edb57e"/></g><g><path d="m86.5702209 28.8081055c-5.612793 0-10.1787109-4.5661621-10.1787109-10.1787109s4.565918-10.178711 10.1787109-10.178711 10.1787109 4.5661621 10.1787109 10.1787109-4.5659179 10.178711-10.1787109 10.178711zm0-18.8574219c-4.7856445 0-8.6787109 3.8933105-8.6787109 8.6787109s3.8930664 8.6787109 8.6787109 8.6787109 8.6787109-3.8933105 8.6787109-8.6787109-3.8930663-8.6787109-8.6787109-8.6787109z" fill="#0f0f0f"/></g><g><g><path d="m86.5702209 6.6386719c-.4140625 0-.75-.3356934-.75-.75v-1.1875c0-.4143066.3359375-.75.75-.75s.75.3356934.75.75v1.1875c0 .4143066-.3359375.75-.75.75z" fill="#0f0f0f"/></g><g><path d="m86.5702209 33.307373c-.4140625 0-.75-.3356934-.75-.75v-1.1875c0-.4143066.3359375-.75.75-.75s.75.3356934.75.75v1.1875c0 .4143067-.3359375.75-.75.75z" fill="#0f0f0f"/></g></g><g><g><path d="m73.8294983 19.3796387h-1.1875c-.4140625 0-.75-.3356934-.75-.75s.3359375-.75.75-.75h1.1875c.4140625 0 .75.3356934.75.75s-.3359375.75-.75.75z" fill="#0f0f0f"/></g><g><path d="m100.4984436 19.3796387h-1.1875c-.4140625 0-.75-.3356934-.75-.75s.3359375-.75.75-.75h1.1875c.4140625 0 .75.3356934.75.75s-.3359375.75-.75.75z" fill="#0f0f0f"/></g></g><g><g><path d="m77.5609436 10.3701172c-.1918945 0-.3837891-.0732422-.5302734-.2197266l-.8393555-.8395996c-.2929688-.2929688-.2929688-.7678223 0-1.060791.2929688-.2924805.7675781-.2927246 1.0605469.0002441l.8393555.8395996c.2929688.2929688.2929688.7678223 0 1.060791-.1464844.1462403-.338379.2194825-.5302735.2194825z" fill="#0f0f0f"/></g><g><path d="m96.4188538 29.2280273c-.1918945 0-.3837891-.0732422-.5302734-.2194824l-.8398438-.8395996c-.2929688-.2929688-.2929688-.7678223 0-1.060791s.7675781-.2927246 1.0605469-.0002441l.8398438.8395996c.2929688.2929688.2929688.7678223 0 1.060791-.1464845.1464844-.338379.2197265-.5302735.2197265z" fill="#0f0f0f"/></g></g><g><g><path d="m76.7215881 29.2282715c-.1918945 0-.3837891-.0732422-.5302734-.2197266-.2929688-.2929688-.2929688-.7678223 0-1.060791l.8398438-.8395996c.2929688-.2924805.7675781-.2927246 1.0605469.0002441s.2929688.7678223 0 1.060791l-.8398438.8395996c-.1464844.1462403-.3383789.2194825-.5302735.2194825z" fill="#0f0f0f"/></g><g><path d="m95.5794983 10.3703613c-.1918945 0-.3837891-.0732422-.5302734-.2194824-.2929688-.2929688-.2929688-.7678223 0-1.060791l.8393555-.8395996c.2929688-.2929688.7675781-.2927246 1.0605469-.0002441.2929688.2929688.2929688.7678223 0 1.060791l-.8393555.8395996c-.1464844.1464843-.338379.2197265-.5302735.2197265z" fill="#0f0f0f"/></g></g></g><g><g><g><path d="m97.9233551 100.2988281h-90.8500986c-1.8601074 0-3.079834-2.1946793-2.369873-4.1738892 2.6699219-7.4836731 11.500001-12.9653778 21.9899902-12.9653778 6.7697754 0 12.8398438 2.2863083 17.0197754 5.925415 2.9401855-1.5810394 6.5-2.5017776 10.3400879-2.5017776 3.0200195 0 5.8601074.5686569 8.3601074 1.5804749h.0100098c4.1098633-3.0932083 9.6999512-5.0041122 15.8798828-5.0041122 10.4899902 0 19.3200684 5.4817047 21.9899902 12.9653778.7099619 1.9792099-.5100088 4.1738891-2.3698721 4.1738891z" fill="#dabcbc"/></g><g><path d="m97.9233551 100.2988281h-90.8500986c-1.8601074 0-3.079834-2.1946793-2.369873-4.1738892.8598633-2.4112549 2.3598633-4.6059341 4.3398438-6.4824066 9.8701181 3.616333 24.4599609 5.9026413 40.7299805 5.9026413 18.420166 0 34.6899414-2.9343872 44.3901367-7.4042664 2.8798828 2.1496964 5.0300293 4.9019318 6.1298828 7.9840317.7099618 1.97921-.5100089 4.1738892-2.3698722 4.1738892z" fill="#bc9595"/></g><g><path d="m97.9232483 101.0488281h-90.8500962c-1.0234375 0-1.9707031-.512207-2.5996094-1.4055176-.7470703-1.0620117-.9296875-2.5070801-.4760742-3.7714844 2.8276367-7.9257812 12.160645-13.4621581 22.6958012-13.4621581 6.4765606 0 12.6831036 2.1000977 17.1206036 5.7770996 3.050293-1.5410156 6.5786133-2.3535156 10.2392578-2.3535156 2.9072266 0 5.6821289.4987793 8.2553711 1.4829102 4.3725586-3.1669922 10.0341797-4.9064941 15.9946289-4.9064941 10.5351563 0 19.8686523 5.536377 22.6967773 13.4633789.453125 1.2629395.2705078 2.7080078-.4770508 3.7700195-.6284179.8933105-1.5761718 1.4057616-2.5996093 1.4057616zm-71.2299786-17.1391601c-9.9125977 0-18.6645508 5.126709-21.2832031 12.4672852-.2919922.8137207-.1806641 1.7338867.2905273 2.4030762.2021484.2871094.6489258.7687988 1.3725586.7687988h90.8500977c.7236328 0 1.1708984-.4819336 1.3730469-.769043.4707031-.6691895.5825195-1.5893555.2910156-2.4016113-2.6191425-7.3417969-11.3715839-12.4685059-21.2841816-12.4685059-5.7910156 0-11.2705078 1.7236328-15.4287109 4.8532715-.2070313.1555176-.5009766.1931152-.7421875.0959473-2.5014648-1.0124512-5.2197266-1.5256348-8.0791016-1.5256348-3.5976563 0-7.050293.8342285-9.984375 2.4123535-.2744141.1477051-.6118164.1101074-.8481445-.0949707-4.1904297-3.6484375-10.2148438-5.7409668-16.5273419-5.7409668z" fill="#0f0f0f"/></g></g></g><g><g><path d="m89.4840012 81.5004196c-1.5181427 7.0013733-6.7289658 12.2286835-13.15271 14.0713272-2.890976.8374481-6.0264206.981781-9.1753922.2989273-5.8792-1.2749023-10.5124321-5.1820374-12.9235458-10.238266-1.7315826-3.6199036-2.3174133-7.8331604-1.3967323-12.0791702.7790527-3.5928497 2.5437126-6.7176437 4.9582367-9.1578674 3.9900627-4.0451813 9.7447472-6.1995201 15.6825981-5.4379959.5384216.0641441 1.0799789.1552505 1.6242676.2732773 5.6279068 1.2204094 10.114624 4.8327255 12.6122055 9.5306549 2.0131988 3.77742 2.7444305 8.2501449 1.7710724 12.7391128z" fill="#fff"/></g><g><path d="m89.4894943 81.4982758c-1.5190353 7.0053787-6.7360916 12.2258453-13.1544571 14.0729599-2.8972702.8343201-6.0317841.9800415-9.1750183.2984695-5.8873024-1.2765961-10.514534-5.1841736-12.928257-10.2416687-.6391869-1.3404846-1.1249809-2.7619781-1.4237709-4.2265854 2.5184708 4.5261993 6.9007645 7.9735718 12.3667145 9.1695099 3.1432343.6815796 6.2777481.5358582 9.1772385-.3087006 6.4161453-1.8368835 11.6355209-7.0680618 13.1522369-14.0627213.5712509-2.6344452.5555573-5.2599564.0388947-7.7436218.062561.0967178.1128159.2019958.1732788.3089676 2.0139084 3.7694245 2.7468109 8.2430954 1.7731399 12.7333909z" fill="#ddd"/></g><g><g><path d="m75.1487503 74.7002029-1.8669968 2.9886093c-12.496212-.1581421-15.487896-13.2934418-15.487896-13.2934418 3.9900627-4.0451813 9.7447472-6.1995201 15.6825981-5.4379959-1.6602248 7.0494462-1.3068999 12.4574204 1.6722947 15.7428284z" fill="#c3c9fb"/></g><g><path d="m75.1458588 74.7002335-1.8607407 2.9919968c-12.5020676-.1617737-15.4943047-13.2957153-15.4943047-13.2957153.5617485-.5673866 1.1450272-1.0887871 1.7737961-1.5794029 1.3651772 3.629261 5.362896 11.3074837 14.8956184 11.4314308l.1296692-.2121582c.1805115.2273864.3632432.4445342.5559617.6638488z" fill="#8693e2"/></g><g><path d="m89.4840012 81.5004196s-5.0990829-5.9636002-11.0907288-2.1507492l-.7848892-4.5895844s2.7616653-5.4164658 10.1045456-5.9987793c2.0131988 3.7774201 2.7444305 8.250145 1.7710724 12.7391129z" fill="#abecef"/></g><g><path d="m89.4894943 81.4982758s-5.1007004-5.9640732-11.100174-2.1457596l-.7812729-4.5882187s.0022202-.010231.0186539-.0377884c2.3046417-.9579239 4.4214325-.573143 6.0890961.1805573 1.9534302.8828659 4.1961975-.6330414 4.0256042-2.7699127-.0894699-1.1206741-.2804108-2.2227402-.5661163-3.2957993.2891922-.1058502.1972046-.0721817.4863968-.1780396 2.0552521 3.7904968 2.8102417 8.3042603 1.8278122 12.834961z" fill="#75c5c9"/></g><g><path d="m76.3312912 95.5717468c-2.890976.8374481-6.0264206.981781-9.1753922.2989273-5.8792-1.2749023-10.5124321-5.1820374-12.9235458-10.238266 14.8273392 3.92556 19.9266968-6.3678894 19.9266968-6.3678894l3.6500778.5547485c3.6587296 4.7217255 2.8624954 10.0119706-1.4778366 15.7524796z" fill="#ff84a0"/></g><g><path d="m76.3350372 95.5712357c-2.8972702.8343201-6.0317841.9800415-9.1750183.2984695-5.8847885-1.2760544-10.5105782-5.1808395-12.925148-10.2351913.2469749-.1466751.1672668-.0993347.4142418-.2460098 2.5868645 3.198082 6.2408295 5.5480881 10.5545311 6.4946899.2234116.048439.4468231.09272.6701584.1328659 6.1975708 1.1141968 12.2303162-3.398819 12.3022614-9.6953354.0091324-.7992172-.0774918-1.5863571-.2632828-2.3609161 3.5391922 4.6852951 2.7156448 9.9289703-1.5777436 15.6114273z" fill="#f76189"/></g></g><g><path d="m91.6576233 68.4465332c-.2788086 0-.5463867-.15625-.6757813-.4243164-.1274414-.2641602-.2602539-.5263672-.3989258-.7861328-1.5478516-2.9104004-3.6704102-5.3789063-6.309082-7.3374023-.3330078-.2468262-.4023438-.7165527-.1552734-1.0493164.2470703-.3325195.7167969-.4016113 1.0488281-.1552734 2.8193359 2.0922852 5.0869141 4.7290039 6.7397461 7.8374023.1474609.2768555.2890625.5566406.425293.8388672.1801758.3730469.0239258.8212891-.3491211 1.0014648-.1054688.0505371-.2163086.074707-.3256836.074707z" fill="#0f0f0f"/></g><g><path d="m82.3983459 58.5341797c-.1259766 0-.2529297-.0317383-.3701172-.0981445-.4414063-.2509766-.8920898-.4868164-1.3515625-.7067871-.3740234-.1789551-.5317383-.6269531-.3525391-1.0004883s.6274414-.5310059 1-.3525391c.4916992.2355957.9736328.4875488 1.4453125.7556152.3603516.204834.4863281.6625977.28125 1.0227051-.1381835.2431641-.3916015.3796387-.6523437.3796387z" fill="#0f0f0f"/></g><g><path d="m71.1639709 97.0500488c-1.3945313 0-2.7929688-.1484375-4.1669922-.4465332-5.9287109-1.2856445-10.8276367-5.166748-13.4414063-10.6484375-1.8798828-3.9301758-2.3823242-8.2739258-1.4526367-12.560791.7832031-3.6135254 2.5668945-6.9077148 5.1577148-9.5266113 4.2470703-4.3054199 10.34375-6.418457 16.3110352-5.6542969.5541992.065918 1.1245117.1621094 1.6879883.2844238 5.6357422 1.222168 10.4165039 4.8347168 13.1152344 9.911377 2.1611328 4.0551758 2.8154297 8.7612305 1.8417969 13.2502441-1.5273438 7.0439453-6.7685547 12.651123-13.6782227 14.6333008-1.7407226.5041504-3.5537109.7573242-5.3745117.7573242zm-.012207-37.4904785c-4.7651367 0-9.4326172 1.9243164-12.8237305 5.3623047-2.3911133 2.4165039-4.0366211 5.4558105-4.7592773 8.7902832-.8583984 3.9587402-.3950195 7.96875 1.340332 11.5964355 2.4125977 5.0603027 6.9345703 8.6425781 12.4057617 9.8291016 2.9248047.6342773 5.9716797.5356445 8.8081055-.286377 6.3798828-1.8300781 11.2177734-7.0065918 12.6279297-13.5097656.8984375-4.142334.2944336-8.4848633-1.7001953-12.2275391-2.4916992-4.6870117-6.9052734-8.0217285-12.109375-9.1503906-.5170898-.1123047-1.0400391-.2004395-1.5537109-.2617188-.7441407-.0954589-1.4916993-.1423339-2.2358399-.1423339z" fill="#0f0f0f"/></g><g><g><path d="m73.2816467 78.4387207c-.0029297 0-.0063477 0-.0092773 0-12.9375-.1635742-16.1787109-13.7397461-16.2099609-13.8769531-.0566406-.2495117.0175781-.5109863.1972656-.6931152 4.2480469-4.3063965 10.3500977-6.4196777 16.3120117-5.6552734.2109375.0270996.4003906.1420898.5214844.3166504.1206055.1745605.1621094.392334.1132813.5991211-1.6640625 7.0668945-1.1601563 12.1362305 1.4980469 15.0671387.2250977.2485352.2583008.6166992.0805664.9013672l-1.8671875 2.9885254c-.1372071.2194823-.3779298.3525389-.6362306.3525389zm-14.6538086-13.8134766c.5966797 2.1455078 3.8789063 11.916748 14.2446289 12.3032227l1.3491211-2.1594238c-2.6230469-3.2570801-3.168457-8.2287598-1.6630859-15.1535645-5.1010742-.4104004-10.2250977 1.4274903-13.9306641 5.0097656z" fill="#0f0f0f"/></g><g><path d="m89.4837952 82.25c-.2158203 0-.4248047-.0932617-.5693359-.2612305-.1918945-.2226563-4.7597656-5.4179688-10.1181641-2.0063477-.2124023.1347656-.4765625.1550293-.7070313.0527344-.2294922-.1015625-.3925781-.3115234-.4350586-.559082l-.7851563-4.5895996c-.0273438-.1594238-.0024414-.3232422.0712891-.467041.1201172-.2365723 3.0405273-5.7973633 10.7133789-6.4057617.2963867-.0241699.5805664.1313477.7211914.3947754 2.1611328 4.0559082 2.8154297 8.7619629 1.8417969 13.2509766-.0600586.2780762-.2729492.4975586-.5488281.567627-.0610352.0153807-.1225586.0229491-.184082.0229491zm-6.9824219-4.9199219c2.8530273 0 5.2026367 1.5725098 6.4882813 2.6625977.4907227-3.5617676-.1025391-7.2055664-1.7109375-10.4365234-5.7490234.6496582-8.3256836 4.3991699-8.8862305 5.3393555l.5610352 3.2802734c1.2373046-.6047364 2.4311523-.8457032 3.5478515-.8457032z" fill="#0f0f0f"/></g><g><path d="m71.1634827 97.0498047c-1.3945313 0-2.7929688-.1484375-4.1665039-.4462891-5.9287109-1.2856445-10.8276367-5.166748-13.4414063-10.6484375-.1259766-.2636719-.0869141-.5766602.0996094-.8015137.1865234-.2250977.487793-.3212891.769043-.2463379 14.0712891 3.7265625 19.0146484-5.878418 19.0629883-5.9758301.1450195-.2927246.4594727-.4592285.784668-.4084473l3.6499023.5549316c.1904297.0288086.3623047.1298828.4799805.2819824 3.7373047 4.822998 3.2416992 10.4296875-1.472168 16.6643066-.0976563.1289063-.2338867.2229004-.3896484.2680664-1.741211.5043948-3.5551759.7575686-5.3764649.7575686zm5.1679687-1.4780274h.0097656zm-20.6601562-8.8300781c2.5380859 4.3007813 6.7036133 7.324707 11.6435547 8.3959961 2.8432617.6166992 5.800293.5405273 8.5688477-.21875 4.097168-5.5153809 4.5922852-10.2321777 1.5112305-14.4040527l-2.8461914-.4326172c-1.2392579 1.9738769-6.685547 9.1706543-18.8774415 6.6594238z" fill="#0f0f0f"/></g></g><g><path d="m79.1436462 77.9515457c-.339592 1.5661469-1.8784103 2.5564728-3.4444122 2.2168884-1.5578232-.3378143-2.5482407-1.8766022-2.2086411-3.442749.3377609-1.5577164 1.8765945-2.5480957 3.4344177-2.2102814 1.5659943.3395844 2.5564042 1.8784333 2.2186356 3.436142z" fill="#5b5476"/></g><g><path d="m79.1428757 77.9487762c-.3397675 1.5669327-1.8818436 2.5594177-3.4485321 2.219696-1.3171005-.2855988-2.2277603-1.43396-2.2589188-2.7359543.3650513.3403473.8215485.5959473 1.3504333.7106247 1.5665665.3396912 3.1086426-.6527939 3.44841-2.2197189.0496597-.2289963.0695572-.4654694.0551834-.6879425.7220918.6687546 1.0762406 1.68573.8534242 2.713295z" fill="#3f3b5b"/></g><g><path d="m76.3221741 80.9858398c-.2597656 0-.5214844-.0280762-.7822266-.0844727-.949707-.2060547-1.762207-.7702637-2.2875977-1.5883789-.5258789-.8186035-.7011719-1.7939453-.4946289-2.7463379.4257813-1.9606934 2.3706055-3.2075195 4.3266602-2.7841797.9521484.206543 1.7670898.7705078 2.2939453 1.5876465.5273438.8173828.7041016 1.7905273.4980469 2.7404785-.206543.953125-.7709961 1.7680664-1.5893555 2.2946777-.5947265.3828126-1.2724609.5805665-1.9648437.5805665zm-.0092774-5.7863769c-.984375 0-1.8725586.6850586-2.0893555 1.6850586-.121582.5615234-.0185547 1.1359863.2910156 1.6179199.3085938.4807129.7856445.8120117 1.34375.9331055.5605469.1210938 1.1352539.0180664 1.6171875-.2915039.4814453-.3098145.8134766-.7897949.9350586-1.3513184.1210938-.5578613.0170898-1.1293945-.2924805-1.6096191-.3105469-.480957-.7905273-.8129883-1.3520508-.9348145-.1518553-.032959-.3037108-.0488281-.4531249-.0488281z" fill="#0f0f0f"/></g></g><g><path d="m13.2543039 96.916748c-.1005859 0-.2026367-.0202637-.300293-.0634766-.3774414-.1662598-.5507813-.6037598-.387207-.9821777.0375977-.0856934.940918-2.1164551 3.6225595-3.4350586 2.9033203-1.4265137 6.684082-1.4624023 11.2402344-.1062012 4.1396484 1.2282715 7.9404278 1.4562988 10.9931622.659668 2.7602539-.7016602 4.0219727-2.0019531 4.0341797-2.0148926.284668-.2988281.7573242-.3134766 1.0585938-.0310059.300293.2824707.3178711.7529297.0371094 1.0551758-.0610352.065918-1.5385742 1.6254883-4.7558594 2.4431152-3.3588867.8779297-7.3295879.6508789-11.7944317-.6743164-4.1831055-1.2453613-7.5986328-1.2404785-10.1508789.0146484-2.1611338 1.0625-2.902833 2.6730957-2.9096689 2.689209-.1250001.2788087-.3999024.4453126-.6875001.4453126z" fill="#0f0f0f"/></g><g><path d="m38.612278 93.7147675c-2.5520134.6672058-6.2923851.8484268-11.3964138-.6664658-5.1913757-1.5452194-8.5689163-.9845352-10.6956463.0606537 2.9397335-26.6164246 8.4815693-48.3856316 17.9638176-62.8525772h5.5416832c0 .0000019-12.9347668 26.7222061-1.4134407 63.4583893z" fill="#5b5476"/></g><g><path d="m38.612278 93.7147675c-2.5520134.6672058-6.2923851.8484268-11.3964138-.6664658-5.1913757-1.5452194-8.5689163-.9845352-10.6956463.0606537.0749779-.6967926.1626301-1.3780441.2377625-2.0600433.1499557.0147934.2876968.0451202.4376526.0606537 7.9437428 1.0148621 14.2361259-7.7712326 12.6348553-17.2393188-2.5895805-15.2702522-1.1883545-28.0558739.7505474-36.7968407 1.2135525-2.4239807 2.5144501-4.6963196 3.9029999-6.8170261h5.5416832c-.0000001-.0000001-12.9347669 26.7222041-1.4134408 63.4583873z" fill="#3f3b5b"/></g><g><path d="m34.5047913 94.9650879c-2.3046875 0-4.8134747-.3996582-7.5024395-1.1977539-4.1831055-1.2451172-7.5986328-1.2399902-10.1508789.0146484-.2460938.1203613-.5380859.0981445-.7617188-.0593262-.224122-.1572266-.3447275-.4240723-.3149424-.6960449 3.1811533-28.8041992 9.0957041-49.4709473 18.081543-63.1813965.1386719-.2114258.3745117-.3388672.6274414-.3388672h5.5419922c.2583008 0 .4980469.1328125.6352539.3515625.137207.2185059.1523438.4924316.0400391.7248535-.1279297.2648926-12.6645489 26.9055176-1.3730469 62.9077148.0610352.1958008.0395508.407959-.0595703.5876465-.0996094.1794434-.2680664.3103027-.4663086.3623047-1.3383799.3498536-2.7734385.5246583-4.2973642.5246583zm-13.1708966-3.6264649c1.8398438 0 3.8759766.3300781 6.0957031.9909668 3.8012695 1.1281738 7.3178692 1.4133301 10.2270489.8352051-9.8100567-32.1223144-.9804687-56.8127441 1.225586-62.1584472h-3.9916992c-8.600584 13.3100586-14.3247051 33.2561035-17.4838848 60.9296875 1.1870117-.3984375 2.4980468-.5974122 3.927246-.5974122z" fill="#0f0f0f"/></g><g><path d="m22.2948322 45.921875c-.0952148 0-.1918945-.0183105-.2851563-.0568848-.3828125-.1577148-.5654297-.5961914-.4077148-.9790039.1591797-.3864746.3203125-.7692871.4833984-1.1484375.1630859-.3803711.6035156-.5561523.9853516-.392334.3803711.1638184.5561523.6049805.3925781.9855957-.1601563.3718262-.3183594.7473145-.4746094 1.1264648-.1191405.2895509-.3989257.4645997-.6938476.4645997z" fill="#0f0f0f"/></g><g><path d="m17.697176 60.3063965c-.059082 0-.1186523-.0070801-.1787109-.0217285-.4023438-.0983887-.6489258-.5043945-.550293-.9067383.9951172-4.0646973 2.1455078-7.8891602 3.4199219-11.3669434.1425781-.3894043.5737305-.5891113.9619141-.4460449.3891602.142334.5888672.5732422.4462891.9621582-1.2548828 3.4257813-2.3891602 7.1965332-3.3710938 11.2072754-.0839845.3425293-.3906251.5720215-.7280274.5720215z" fill="#0f0f0f"/></g><g><g><path d="m65.8145752 11.1768007c-10.348175 3.640646-19.7288742 9.1088095-27.0377007 18.4804382 0 0-8.1102257-31.3834076 26.9697533-21.3601189 1.4254837.4013425 1.4648514 2.3838883.0679474 2.8796807z" fill="#aff2b6"/></g><g><path d="m66.5182495 10.6932898c-23.3322945-5.8102036-25.9058952 8.0385541-25.5013656 16.3091993-.774395.8442955-1.5132523 1.7326431-2.2400093 2.6547489 0 0-8.1102257-31.3834076 26.9697533-21.3601189 1.1277923.3180523 1.38842 1.6184798.7716216 2.3961707z" fill="#7fd685"/></g><g><path d="m38.7767639 30.4072266c-.0507813 0-.1015625-.005127-.1523438-.015625-.2797852-.0581055-.5024414-.2700195-.5737305-.5466309-.1401366-.5419922-3.349121-13.3500977 3.6811524-20.2036133 4.7299805-4.6115723 12.8789063-5.3061523 24.2207031-2.0654297.9594727.2700195 1.6025391 1.0878906 1.6357422 2.0827637.0336914 1.0112305-.5644531 1.8845215-1.5229492 2.2248535-.0009766.0002441-.0014648.0004883-.0019531.0007324-11.7285156 4.1262207-20.2109375 9.920166-26.6953125 18.2341309-.1435547.1843262-.3632812.2888184-.5913086.2888184zm14.7890625-23.3403321c-4.6845703 0-8.2929688 1.217041-10.7871094 3.6484375-5.0678711 4.940918-4.1923828 13.7050781-3.5859375 17.2272949 6.5322266-7.8825684 14.956543-13.4567871 26.3706055-17.4726563.4013672-.1425781.534668-.4865723.5253906-.7612305-.0039063-.1269531-.0561523-.5517578-.5454102-.6896973-4.5561523-1.3017576-8.5541991-1.9521483-11.977539-1.9521483zm12.2485352 4.1098633h.0097656z" fill="#0f0f0f"/></g><g><path d="m38.7768745 29.657238c-7.5658188-9.1566868-17.0939636-14.3639059-27.55196-17.7062817-1.4040489-.4474754-1.4094467-2.4421978-.0112333-2.8811998 34.7817755-11.0221122 27.5631933 20.5874815 27.5631933 20.5874815z" fill="#aff2b6"/></g><g><path d="m38.7768745 29.657238c-.5041962-.6006718-1.0022774-1.1847801-1.5224037-1.751812.2386932-8.2357903-2.5208511-22.3806038-25.8578186-15.9020987-.0631084-.0151796-.1090336-.0366955-.1717377-.052371-1.4040489-.4474754-1.4094467-2.4421978-.0112333-2.8811998 34.7817755-11.0221122 27.5631933 20.5874815 27.5631933 20.5874815z" fill="#7fd685"/></g><g><path d="m38.7668076 29.7087002c-11.8364697-.9992142-22.2304001 2.1699028-31.932345 7.3060169-1.2950315.6976624-2.7229886-.6865501-2.0632453-2.0051956 16.447445-32.5609572 33.9955903-5.3008213 33.9955903-5.3008213z" fill="#aff2b6"/></g><g><path d="m38.7668076 29.7087002c-.877346-.0739784-1.7369194-.1259308-2.6010361-.1382198-5.6492748-6.0001049-18.055872-14.6467161-30.060133 7.6220703-1.0282893.0087624-1.8639507-1.1123466-1.3344212-2.1830292 16.447445-32.5609572 33.9955903-5.3008213 33.9955903-5.3008213z" fill="#7fd685"/></g><g><path d="m71.4852448 31.5960751c-10.4274788-3.4678326-21.1885567-4.8757458-32.7083702-1.9388371 0 0 12.8013802-29.7798443 34.4049873-.3950291.8716659 1.1941491-.298378 2.7930088-1.6966171 2.3338662z" fill="#aff2b6"/></g><g><path d="m72.5245895 31.5637207c-14.2206993-17.5920238-24.380722-9.4719086-29.2754364-2.8276081-1.4777794.2194996-2.9704208.5306816-4.4722786.9211254 0 0 12.8013802-29.7798443 34.4049873-.3950291.6418.8761425.186493 1.9678975-.6572723 2.3015118z" fill="#7fd685"/></g><g><path d="m60.2514076 54.4361229c-4.8159637-9.8749695-11.329258-18.5529366-21.4846001-24.7274227 0 0 30.2464676-11.6732998 24.3275681 24.3192616-.2356529 1.4611549-2.2009506 1.7331275-2.842968.4081611z" fill="#aff2b6"/></g><g><path d="m60.9229431 55.1288948c2.912468-23.2865047-10.6804657-24.519453-18.866806-23.2475147-1.0478592-.7580986-2.1405983-1.4803619-3.2893295-2.1726799 0 0 30.2464676-11.6732998 24.3275681 24.3192616-.1819573 1.1074638-1.3477632 1.529293-2.1714326 1.100933z" fill="#7fd685"/></g><g><path d="m38.7767639 30.4072266c-.2207031 0-.4335938-.0976563-.578125-.2722168-6.7226543-8.1359863-15.366209-13.6870117-27.2021484-17.4697266-.9604492-.3061523-1.5800781-1.1574707-1.578125-2.1687012.0019531-1.0024414.6186523-1.8435059 1.5708008-2.142334 11.2421885-3.5629883 19.40625-3.1010742 24.265625 1.373291 7.2231445 6.6513672 4.3779297 19.5507813 4.2529297 20.0966797-.0634766.2785645-.2797852.4968262-.5576172.5627441-.0576172.013672-.1157227.0202638-.1733399.0202638zm-14.6791973-22.9257813c-3.5849609 0-7.8105469.767334-12.6572275 2.3032227-.4833984.1518554-.5214844.5859375-.5219727.715332-.0004883.1325684.0375977.5778809.5341797.7363281 11.520997 3.6821289 20.1005859 9.0144043 26.8583984 16.717041.5043945-3.5424805 1.1269531-12.3388672-4.0761719-17.1259766-2.4238271-2.2299804-5.8149404-3.3459472-10.137206-3.3459472z" fill="#0f0f0f"/></g><g><path d="m6.1102614 37.9533691c-.5664063 0-1.1230469-.2202148-1.5625-.6467285-.7216797-.7001953-.8969727-1.7336426-.4467773-2.6328125 5.3178706-10.5280761 11.3579097-16.0395508 17.954102-16.3835449 9.8222656-.5229492 17.0395489 10.5415039 17.3427715 11.0124512.1542969.2402344.1591797.5476074.0117188.7924805s-.4243164.3845214-.7055664.3608398c-10.522459-.8894043-20.5346661 1.4067383-31.5185528 7.2214355-.3437504.1850586-.7114262.2758789-1.0751958.2758789zm16.5922857-18.1799316c-.1904297 0-.3818359.0048828-.5742188.0148926-6.0180664.3166504-11.6323252 5.5515137-16.6875 15.5593262-.2299805.4592285.0576172.791748.1513672.8825684s.434082.3686523.8862305.1242676c10.6962891-5.6623535 20.5107422-8.0651855 30.7441387-7.5048828-2.1206055-2.7607423-7.7172833-9.076172-14.5200176-9.076172z" fill="#0f0f0f"/></g><g><path d="m71.9789124 32.4267578c-.2402344 0-.4853516-.0385742-.7275391-.1179199-.0009766-.0002441-.0019531-.0007324-.0029297-.0009766-11.7924805-3.921875-22.0512695-4.532959-32.2866211-1.9238281-.2739258.0708008-.5693359-.0222168-.7553711-.239502-.1855469-.2172852-.2314453-.5209961-.1186523-.7834473.2211914-.5144043 5.5268555-12.6088867 15.2841797-13.7260742 6.565918-.751709 13.4306641 3.6843262 20.4145508 13.1828613.5932617.8132324.5952148 1.8605957.0058594 2.6708984-.4399415.6052247-1.1069337.9379884-1.8134766.9379884zm-.2597657-1.5432129c.4931641.1621094.7832031-.1706543.8603516-.2770996.0766602-.1054688.3032227-.4824219-.003418-.9020996-6.6401367-9.0317383-13.0415039-13.2612305-19.0336914-12.5791016-7.0341797.8054199-11.7094727 8.2739258-13.3867188 11.4309082 10.0078126-2.2392578 20.0859376-1.4887695 31.5634766 2.3273926z" fill="#0f0f0f"/></g><g><path d="m61.5960999 56.0432129c-.8608398 0-1.6298828-.4772949-2.019043-1.2783203-5.4506836-11.1774902-12.1875-18.9355469-21.199707-24.4152832-.2441406-.1484375-.3828125-.4228516-.3574219-.7075195s.2104492-.5300293.4770508-.6330566c.5214844-.2019043 12.8823242-4.8664551 20.4995117 1.3286133 5.1235352 4.1660156 6.7509766 12.1777344 4.8378906 23.8120117-.1591797.9885254-.9023438 1.7226563-1.8920898 1.8679199-.116211.0170898-.2319336.0256347-.3461914.0256347zm-21.0751954-26.1181641c8.5888672 5.5776367 15.0991211 13.3037109 20.4047852 24.1821289 0 .0007324.0004883.0012207.0004883.001709.2280273.470459.6708984.4445801.7983398.4245605.1269531-.0185547.5478516-.1186523.6293945-.6247559 1.8193359-11.064209.3725586-18.6010742-4.2998047-22.4040527-5.4824218-4.4628906-14.0986327-2.5861816-17.5332031-1.5795898z" fill="#0f0f0f"/></g><g><circle cx="38.818" cy="30.39" fill="#dabcbc" r="4.582"/></g><g><path d="m42.9660721 32.3350868c-1.0727539 2.289772-3.7927818 3.2741318-6.093792 2.1961136-1.7142448-.8031158-2.6966057-2.5396423-2.6339569-4.3202553.2492676.186657.532093.3616352.831234.5017834 2.2894936 1.0726223 5.0211601.0930309 6.0991783-2.2079792.2695045-.5752544.4076691-1.1695652.4210091-1.7668648 1.6866264 1.2813778 2.3085403 3.6074105 1.3763275 5.5972023z" fill="#bc9595"/></g><g><path d="m38.809967 35.7214355c-.7568359 0-1.5244141-.1616211-2.2539063-.5031738-2.6621094-1.2470703-3.8134766-4.4279785-2.5664063-7.090332.6044922-1.2897949 1.6748047-2.2668457 3.0141602-2.751709 1.3398438-.4848633 2.7871094-.418457 4.0766602.1855469 1.2895508.604248 2.2666016 1.6745605 2.7514648 3.0136719.484375 1.3391113.418457 2.7868652-.1855469 4.076416-.9057616 1.9331054-2.8310546 3.06958-4.8364257 3.06958zm.0102539-9.1652832c-.4394531 0-.8803711.0766602-1.3061523.2307129-.9624023.3481445-1.7319336 1.0505371-2.1660156 1.9772949-.8959961 1.9135742-.0688477 4.1994629 1.8447266 5.0957031 1.9116211.8959961 4.1987305.0686035 5.0952148-1.8442383.4345703-.927002.4819336-1.9672852.1333008-2.9296875-.3481445-.9624023-1.050293-1.7316895-1.9775391-2.1657715-.5166016-.2421874-1.0688477-.3640136-1.6235352-.3640136z" fill="#0f0f0f"/></g><g><circle cx="32.046" cy="31.497" fill="#dabcbc" r="4.582"/></g><g><path d="m36.1907272 33.4405022c-1.0724907 2.2892151-3.792923 3.2740707-6.0824184 2.2014465-1.9788342-.9270782-2.9885788-3.084053-2.5404167-5.1190739.4338779.9609623 1.1877995 1.7772808 2.2117653 2.2570095 2.2894955 1.0726204 5.0265675.0818596 6.0990582-2.2073536.1510696-.3224564.2566757-.6374378.3275948-.9686718.5471266 1.1681595.577381 2.5709763-.0155832 3.8366433z" fill="#bc9595"/></g><g><path d="m32.0375061 36.828125c-.756834 0-1.5244122-.1616211-2.2539043-.5031738-2.6621094-1.2473145-3.8134766-4.4277344-2.5664063-7.0900879s4.4272461-3.8139648 7.0908184-2.5664063c1.2895508.604248 2.2666016 1.6745605 2.7514648 3.0136719.484375 1.3391113.4189453 2.7868652-.1855469 4.0766602v-.0002441c-.9057616 1.9331054-2.8310546 3.06958-4.8364257 3.06958zm.0141602-9.1630859c-1.4414043 0-2.8251934.8168945-3.4760723 2.2060547-.8959961 1.9133301-.0688477 4.1992188 1.8447266 5.095459 1.9121075.8962402 4.1987286.0686035 5.0952129-1.8442383 0-.0002441 0-.0002441 0-.0002441.4345703-.9265137.4819336-1.967041.1333008-2.9294434-.3481445-.9624023-1.050293-1.7316895-1.9775391-2.1657715-.5239258-.2456055-1.0756836-.3618164-1.6196289-.3618164z" fill="#0f0f0f"/></g><g><circle cx="39.28" cy="34.886" fill="#dabcbc" r="4.582"/></g><g><path d="m43.4274521 36.8308907c-1.0724945 2.2892151-3.792923 3.2740707-6.0939331 2.1960526-1.8292656-.8570061-2.821106-2.7527962-2.6024475-4.6569366.4282608.5233078.9677887.958992 1.6235161 1.2661972 2.3010101 1.0780182 5.0213013.0930977 6.0993195-2.2079124.2155533-.4600906.3512154-.9295197.4020042-1.3969231 1.0563697 1.3087729 1.3368911 3.1658972.5715408 4.7995223z" fill="#bc9595"/></g><g><path d="m39.2767639 40.2207031c-.7714844 0-1.5395508-.1696777-2.2587891-.5065918-2.6621094-1.2470703-3.8134766-4.4277344-2.5664063-7.0900879 1.2475586-2.6628418 4.4282227-3.8132324 7.090332-2.5664063 2.6621094 1.2470703 3.8134766 4.4279785 2.5664063 7.090332-.6044922 1.2897949-1.6748047 2.2668457-3.0136719 2.751709-.592285.2143556-1.2060546.321045-1.817871.321045zm.0087891-9.1665039c-1.4414063 0-2.824707.8168945-3.4755859 2.2060547-.8959961 1.9133301-.0688477 4.1992188 1.8447266 5.095459.9262695.4343262 1.9663086.4816895 2.9291992.1333008.9624023-.3481445 1.7319336-1.0505371 2.1660156-1.9772949.8959961-1.9135742.0688477-4.1994629-1.8447266-5.0957031-.5239258-.2456055-1.0756836-.3618165-1.6196289-.3618165zm4.1435547 5.7756348h.0097656z" fill="#0f0f0f"/></g></g></g><g><g><path d="m96.587471 46.1927147c-3.2625427.6720428-5.8288803 3.2463913-6.5009232 6.5090752-.0403976.1942902-.29953.1942902-.3399277 0-.3318939-1.6353607-1.1415405-3.0926094-2.2830734-4.2260017-1.1252518-1.1333885-2.5824966-1.9510689-4.2178574-2.2830734-.1942902-.0404015-.1942902-.29953 0-.3399277 1.6353607-.3318939 3.0926056-1.1495743 4.2259979-2.2830772 1.1333923-1.1332817 1.9430389-2.590641 2.2749329-4.2258873.0403976-.194294.29953-.194294.3399277 0 .3320007 1.6352463 1.1415329 3.0926056 2.2749252 4.2258873 1.1333923 1.133503 2.5906448 1.9511833 4.2259979 2.2830772.1942979.0403976.1942979.2995261.0000001.3399276z" fill="#c3c9fb"/></g><g><path d="m96.5907745 46.18853c-3.2695084.6714935-5.8342743 3.2473831-6.5058823 6.5167809-.0439224.1871376-.2971039.1871376-.3412476 0-.3191223-1.5631447-1.0566635-2.9611702-2.1134415-4.0619774 2.5318604-.4623413 4.4582748-2.6199226 4.5683517-5.2618599.0440292.0660477.1100845.1320953.165123.1871376 1.1338272 1.133831 2.5868988 1.9484291 4.2270966 2.2786713.1871416.0440291.1871416.3082236.0000001.3412475z" fill="#8693e2"/></g><g><path d="m89.9164124 53.5974121c-.440918 0-.8129883-.3049316-.9042969-.7421875-.2963867-1.4631348-1.0141602-2.7919922-2.0766602-3.847168-1.0600586-1.0673828-2.3862305-1.7854004-3.8393555-2.0803223-.4404297-.0915527-.7460938-.4633789-.7460938-.9050293s.3056641-.8134766.7431641-.9042969c1.453125-.2946777 2.7827148-1.0134277 3.8481445-2.0788574 1.059082-1.059082 1.7749023-2.3886719 2.0703125-3.8447266.0917969-.4416504.4638672-.7468262.9047852-.7468262h.0014648c.4414063.0004883.8129883.3066406.902832.7443848.2963867 1.4589844 1.012207 2.7885742 2.0708008 3.847168 1.065918 1.0654297 2.3955078 1.7841797 3.8447266 2.078125.440918.0915527.746582.4633789.746582.9050293s-.3056641.8134766-.7431641.9042969c-.0004883 0-.0004883.0002441-.0009766.0002441-2.9794922.6137695-5.3022461 2.9399414-5.9179688 5.9260254-.090332.4377441-.4614258.7436523-.902832.7441406-.0004881.0000001-.0009764.0000001-.0014646.0000001zm-4.7280274-7.574707c1.0400391.4526367 1.9912109 1.1025391 2.8076172 1.9248047.8198242.8139648 1.46875 1.7666016 1.9213867 2.8103027.9189453-2.1213379 2.6113281-3.8154297 4.7290039-4.734375-1.0390625-.4521484-1.9931641-1.1015625-2.8154297-1.9230957-.8164063-.8166504-1.4628906-1.7683105-1.9145508-2.809082-.4506836 1.0397949-1.0976563 1.9916992-1.9145508 2.8088379-.8208007.8210449-1.774414 1.4702148-2.8134765 1.9226074zm11.3989258.1699219h.0097656zm-.1523438-.734375h-.0004883z" fill="#0f0f0f"/></g></g><g><g><path d="m12.0335455 71.581543c0 2.054718-1.661973 3.7166901-3.7096386 3.7166901-2.0546064 0-3.716579-1.661972-3.716579-3.7166901 0-2.047554 1.6619725-3.7095261 3.716579-3.7095261 2.0476656 0 3.7096386 1.6619721 3.7096386 3.7095261z" fill="#ff84a0"/></g><g><path d="m12.0338755 71.5803299c0 2.051857-1.6659384 3.7179031-3.7090607 3.7179031-1.6047125 0-2.9813538-1.0259857-3.4986963-2.4551697.5611887.3419571 1.2275863.5435562 1.93783.5435562 2.0518522 0 3.7179279-1.6660461 3.7179279-3.7178955 0-.4296494-.0700932-.8504868-.2104177-1.2364044 1.0521735.6489945 1.7624168 1.8151093 1.7624168 3.1480103z" fill="#f76189"/></g><g><path d="m8.3241282 76.0483398c-2.4628901 0-4.4667964-2.0039063-4.4667964-4.4667969 0-2.4589844 2.0039063-4.4594727 4.4667964-4.4594727 2.4589844 0 4.4594727 2.0004883 4.4594727 4.4594727-.0000001 2.4628907-2.0004884 4.4667969-4.4594727 4.4667969zm0-7.4262695c-1.6357417 0-2.9667964 1.3276367-2.9667964 2.9594727 0 1.6359863 1.3310547 2.9667969 2.9667964 2.9667969 1.6318359 0 2.9594727-1.3308105 2.9594727-2.9667969-.0000001-1.631836-1.3276368-2.9594727-2.9594727-2.9594727z" fill="#0f0f0f"/></g></g></g></svg>